<svg width="12" height="4" viewBox="0 0 12 4" fill="none" xmlns="http://www.w3.org/2000/svg">
<path d="M1.17862 3.11719C0.855469 3.11719 0.57848 3.00355 0.347656 2.77628C0.116832 2.54901 0.00319605 2.27202 0.00674715 1.94531C0.00319605 1.62571 0.116832 1.35227 0.347656 1.125C0.57848 0.897727 0.855469 0.784091 1.17862 0.784091C1.49112 0.784091 1.76278 0.897727 1.99361 1.125C2.22798 1.35227 2.34695 1.62571 2.3505 1.94531C2.34695 2.16193 2.29013 2.35902 2.18004 2.53658C2.07351 2.71413 1.93146 2.85618 1.75391 2.96271C1.5799 3.0657 1.38814 3.11719 1.17862 3.11719ZM5.52921 3.11719C5.20605 3.11719 4.92907 3.00355 4.69824 2.77628C4.46742 2.54901 4.35378 2.27202 4.35733 1.94531C4.35378 1.62571 4.46742 1.35227 4.69824 1.125C4.92907 0.897727 5.20605 0.784091 5.52921 0.784091C5.84171 0.784091 6.11337 0.897727 6.34419 1.125C6.57857 1.35227 6.69753 1.62571 6.70108 1.94531C6.69753 2.16193 6.64071 2.35902 6.53063 2.53658C6.42409 2.71413 6.28205 2.85618 6.10449 2.96271C5.93049 3.0657 5.73873 3.11719 5.52921 3.11719ZM9.87979 3.11719C9.55664 3.11719 9.27965 3.00355 9.04883 2.77628C8.818 2.54901 8.70437 2.27202 8.70792 1.94531C8.70437 1.62571 8.818 1.35227 9.04883 1.125C9.27965 0.897727 9.55664 0.784091 9.87979 0.784091C10.1923 0.784091 10.464 0.897727 10.6948 1.125C10.9292 1.35227 11.0481 1.62571 11.0517 1.94531C11.0481 2.16193 10.9913 2.35902 10.8812 2.53658C10.7747 2.71413 10.6326 2.85618 10.4551 2.96271C10.2811 3.0657 10.0893 3.11719 9.87979 3.11719Z" fill="black"/>
</svg>
