<svg width="17" height="19" viewBox="0 0 17 19" fill="none" xmlns="http://www.w3.org/2000/svg">
<path d="M3.75 1.58325L1.375 4.74992V15.8333C1.375 16.2532 1.54181 16.6559 1.83875 16.9528C2.13568 17.2498 2.53841 17.4166 2.95833 17.4166H14.0417C14.4616 17.4166 14.8643 17.2498 15.1613 16.9528C15.4582 16.6559 15.625 16.2532 15.625 15.8333V4.74992L13.25 1.58325H3.75Z" stroke="#222222" stroke-width="2" stroke-linecap="round" stroke-linejoin="round"/>
<path d="M1.375 4.75H15.625" stroke="#222222" stroke-width="2" stroke-linecap="round" stroke-linejoin="round"/>
<path d="M11.6666 7.91675C11.6666 8.7566 11.333 9.56205 10.7392 10.1559C10.1453 10.7498 9.33983 11.0834 8.49998 11.0834C7.66013 11.0834 6.85467 10.7498 6.26081 10.1559C5.66694 9.56205 5.33331 8.7566 5.33331 7.91675" stroke="#222222" stroke-width="2" stroke-linecap="round" stroke-linejoin="round"/>
</svg>
